# Blender 4.3.2
# www.blender.org
mtllib untitled.mtl
o Куб
v -3.004954 -0.997624 1.003204
v -3.004954 0.997624 1.003204
v -3.004954 -0.997624 -1.003204
v -3.004954 0.997624 -1.003204
v -1.009705 -0.997624 1.003204
v -1.009705 0.997624 1.003204
v -1.009705 -0.997624 -1.003204
v -1.009705 0.997624 -1.003204
v -3.004954 0.997624 1.003204
v -3.004954 0.997624 -1.003204
v -1.009705 0.997624 -1.003204
v -1.009705 0.997624 1.003204
v -2.735262 3.231588 0.732004
v -2.735262 3.231588 -0.732004
v -1.279397 3.231588 -0.732004
v -1.279397 3.231588 0.732004
v -3.004954 -0.997624 -1.003204
v -1.009705 -0.997624 -1.003204
v -1.009705 -0.997624 1.003204
v -3.004954 -0.997624 1.003204
v 1.007329 -1.000000 0.988659
v 1.007329 1.000000 0.988659
v 1.007329 -1.000000 -1.011341
v 1.007329 1.000000 -1.011341
v 3.007329 -1.000000 0.988659
v 3.007329 1.000000 0.988659
v 3.007329 -1.000000 -1.011341
v 3.007329 1.000000 -1.011341
v 1.124662 1.519332 0.871326
v 1.124662 1.519332 -0.894008
v 2.889997 1.519332 -0.894008
v 2.889997 1.519332 0.871326
v 1.124662 1.519332 0.871326
v 1.124662 1.519332 -0.894008
v 2.889997 1.519332 -0.894008
v 2.889997 1.519332 0.871326
v 1.358795 3.179632 0.637194
v 1.358795 3.179632 -0.659875
v 2.655864 3.179632 -0.659875
v 2.655864 3.179632 0.637194
v -2.727364 2.957428 1.074510
v -2.747792 4.707343 1.092104
v -2.727364 2.957428 -0.925490
v -2.747792 4.707343 -0.907897
v 2.688905 2.957428 1.074510
v 2.668477 4.707343 1.092104
v 2.688905 2.957428 -0.925490
v 2.668477 4.707343 -0.907897
v -2.747792 14.861338 1.092104
v -2.747792 14.861338 -0.907897
v 2.668477 14.861338 -0.907897
v 2.668477 14.861338 1.092104
v -4.789738 12.850642 1.107627
v -4.789738 14.850642 1.107627
v -4.789738 12.850642 -0.892373
v -4.789738 14.850642 -0.892373
v -2.789738 12.850642 1.107627
v -2.789738 14.850642 1.107627
v -2.789738 12.850642 -0.892373
v -2.789738 14.850642 -0.892373
v -4.789738 12.850642 -0.892373
v -4.789738 12.850642 1.107627
v -4.789738 14.850642 1.107627
v -4.789738 14.850642 -0.892373
v -2.647584 14.850642 -0.892373
v -2.647584 12.850642 -0.892373
v -2.647584 12.850642 1.107627
v -2.647584 14.850642 1.107627
v -4.849015 7.457771 -0.257770
v -4.849015 7.457771 1.742229
v -2.849015 7.457771 -0.257770
v -2.849015 7.457771 1.742229
v 2.647281 12.826991 1.073586
v 2.647281 14.826991 1.073586
v 2.647281 12.826991 -0.926414
v 2.647281 14.826991 -0.926414
v 4.647281 12.826991 1.073586
v 4.647281 14.826991 1.073586
v 4.647281 12.826991 -0.926414
v 4.647281 14.826991 -0.926414
v 2.519289 7.189117 -1.921459
v 2.519289 7.189117 0.078541
v 4.519289 7.189117 -1.921459
v 4.519289 7.189117 0.078541
v -2.384308 14.498169 2.381312
v -2.384308 19.086142 2.381312
v -2.384308 14.498169 -2.206660
v -2.384308 19.086142 -2.206660
v 2.203663 14.498169 2.381312
v 2.203663 19.086142 2.381312
v 2.203663 14.498169 -2.206660
v 2.203663 19.086142 -2.206660
vn -1.0000 -0.0000 -0.0000
vn -0.0000 -0.0000 -1.0000
vn 1.0000 -0.0000 -0.0000
vn -0.0000 -0.0000 1.0000
vn -0.0000 -1.0000 -0.0000
vn -0.0000 0.1205 0.9927
vn -0.0000 1.0000 -0.0000
vn -0.0000 0.1205 -0.9927
vn 0.9928 0.1199 -0.0000
vn -0.9928 0.1199 -0.0000
vn -0.0000 0.2204 -0.9754
vn 0.9754 0.2204 -0.0000
vn -0.9754 0.2204 -0.0000
vn -0.0000 0.2204 0.9754
vn -0.0000 0.1396 0.9902
vn -0.0000 0.1396 -0.9902
vn 0.9902 0.1396 -0.0000
vn -0.9902 0.1396 -0.0000
vn -0.9999 -0.0117 -0.0000
vn -0.0000 0.0101 -0.9999
vn 0.9999 0.0117 -0.0000
vn -0.0000 -0.0101 0.9999
vn -0.0000 0.1169 0.9931
vn -0.0000 -0.1169 -0.9931
vn -0.9999 0.0110 -0.0000
vn 0.9999 -0.0110 -0.0000
vn -0.9997 0.0227 -0.0000
vn 0.9997 -0.0227 -0.0000
vn -0.0000 -0.1738 0.9848
vn -0.0000 0.1738 -0.9848
vt 0.375000 0.000000
vt 0.625000 0.000000
vt 0.625000 0.250000
vt 0.375000 0.250000
vt 0.625000 0.500000
vt 0.375000 0.500000
vt 0.625000 0.750000
vt 0.375000 0.750000
vt 0.625000 1.000000
vt 0.375000 1.000000
vt 0.125000 0.500000
vt 0.125000 0.750000
vt 0.875000 0.750000
vt 0.875000 0.500000
vt 0.625000 0.500000
vt 0.375000 0.500000
vt 0.625000 0.750000
vt 0.375000 0.750000
s 0
f 1/1/1 9/2/1 10/3/1 3/4/1
f 3/4/2 10/3/2 11/5/2 7/6/2
f 7/6/3 11/5/3 12/7/3 5/8/3
f 5/8/4 12/7/4 9/9/4 1/10/4
f 17/11/5 18/6/5 19/8/5 20/12/5
f 2/13/6 6/7/6 16/7/6 13/13/6
f 2/13/7 4/14/7 10/14/7 9/13/7
f 4/14/7 8/5/7 11/5/7 10/14/7
f 8/5/7 6/7/7 12/7/7 11/5/7
f 6/7/7 2/13/7 9/13/7 12/7/7
f 15/5/7 14/14/7 13/13/7 16/7/7
f 8/5/8 4/14/8 14/14/8 15/5/8
f 6/7/9 8/5/9 15/5/9 16/7/9
f 4/14/10 2/13/10 13/13/10 14/14/10
f 3/11/5 7/6/5 18/6/5 17/11/5
f 7/6/1 5/8/1 19/8/1 18/6/1
f 5/8/5 1/12/5 20/12/5 19/8/5
f 1/12/3 3/11/3 17/11/3 20/12/3
f 21/1/1 22/2/1 24/3/1 23/4/1
f 23/4/2 24/3/2 28/5/2 27/6/2
f 27/6/3 28/5/3 26/7/3 25/8/3
f 25/8/4 26/7/4 22/9/4 21/10/4
f 23/11/5 27/6/5 25/8/5 21/12/5
f 28/5/11 24/3/11 30/3/11 31/5/11
f 32/7/7 31/5/7 35/5/7 36/7/7
f 26/7/12 28/5/12 31/5/12 32/7/12
f 24/3/13 22/2/13 29/2/13 30/3/13
f 22/9/14 26/7/14 32/7/14 29/9/14
f 33/9/15 36/7/15 40/7/15 37/9/15
f 30/3/7 29/2/7 33/2/7 34/3/7
f 29/9/7 32/7/7 36/7/7 33/9/7
f 31/5/7 30/3/7 34/3/7 35/5/7
f 39/5/7 38/14/7 37/13/7 40/7/7
f 35/5/16 34/3/16 38/3/16 39/5/16
f 36/7/17 35/5/17 39/5/17 40/7/17
f 34/3/18 33/2/18 37/2/18 38/3/18
f 41/1/19 42/2/19 44/3/19 43/4/19
f 43/4/20 44/3/20 48/5/20 47/6/20
f 47/6/21 48/5/21 46/7/21 45/8/21
f 45/8/22 46/7/22 42/9/22 41/10/22
f 43/11/5 47/6/5 45/8/5 41/12/5
f 44/3/1 42/2/1 49/2/1 50/3/1
f 51/5/7 50/14/7 49/13/7 52/7/7
f 42/9/4 46/7/4 52/7/4 49/9/4
f 48/5/2 44/3/2 50/3/2 51/5/2
f 46/7/3 48/5/3 51/5/3 52/7/3
f 54/13/7 56/14/7 64/14/7 63/13/7
f 55/4/2 56/3/2 60/5/2 59/6/2
f 58/7/4 57/8/4 67/8/4 68/7/4
f 57/8/4 58/7/4 54/9/4 53/10/4
f 57/8/23 53/10/23 70/10/23 72/8/23
f 60/5/7 56/14/7 54/13/7 58/7/7
f 62/1/1 63/2/1 64/3/1 61/4/1
f 55/11/7 53/12/7 62/12/7 61/11/7
f 56/3/7 55/4/7 61/4/7 64/3/7
f 53/10/7 54/9/7 63/9/7 62/10/7
f 66/6/3 65/5/3 68/7/3 67/8/3
f 57/8/5 59/6/5 66/6/5 67/8/5
f 60/5/7 58/7/7 68/7/7 65/5/7
f 59/6/2 60/5/2 65/5/2 66/6/2
f 69/11/5 71/6/5 72/8/5 70/12/5
f 55/4/24 59/6/24 71/6/24 69/4/24
f 53/12/25 55/11/25 69/11/25 70/12/25
f 59/6/26 57/8/26 72/8/26 71/6/26
f 73/1/1 74/2/1 76/3/1 75/4/1
f 75/4/2 76/3/2 80/15/2 79/16/2
f 79/16/3 80/15/3 78/17/3 77/18/3
f 77/18/4 78/17/4 74/9/4 73/10/4
f 73/1/27 75/4/27 81/4/27 82/1/27
f 80/15/7 76/14/7 74/13/7 78/17/7
f 81/11/5 83/16/5 84/18/5 82/12/5
f 79/16/28 77/18/28 84/18/28 83/16/28
f 77/18/29 73/10/29 82/10/29 84/18/29
f 75/4/30 79/16/30 83/16/30 81/4/30
f 85/1/1 86/2/1 88/3/1 87/4/1
f 87/4/2 88/3/2 92/5/2 91/6/2
f 91/6/3 92/5/3 90/7/3 89/8/3
f 89/8/4 90/7/4 86/9/4 85/10/4
f 87/11/5 91/6/5 89/8/5 85/12/5
f 92/5/7 88/14/7 86/13/7 90/7/7
